<svg width="23" height="23" viewBox="0 0 23 23" fill="none" xmlns="http://www.w3.org/2000/svg">
<g id="vuesax/linear/bag-happy">
<g id="bag-happy">
<path id="Vector" d="M8.323 11.9351C7.89567 13.248 8.6245 14.6802 9.93749 15.1075C11.2505 15.5348 12.6826 14.806 13.1099 13.493" stroke="#040B14" stroke-width="1.07873" stroke-miterlimit="10" stroke-linecap="round" stroke-linejoin="round"/>
<path id="Vector_2" d="M11.2614 3.62649L7.97797 5.30317" stroke="#040B14" stroke-width="1.07873" stroke-miterlimit="10" stroke-linecap="round" stroke-linejoin="round"/>
<path id="Vector_3" d="M15.6245 5.04688L17.2921 8.33494" stroke="#040B14" stroke-width="1.07873" stroke-miterlimit="10" stroke-linecap="round" stroke-linejoin="round"/>
<path id="Vector_4" d="M5.30242 6.11184C5.71417 4.84672 6.42457 4.96448 7.2657 5.23824L17.9064 8.70138C18.7475 8.97514 19.3912 9.29806 18.9794 10.5632C18.5009 12.0335 17.8573 11.7105 17.0161 11.4368L6.37544 7.97364C5.5343 7.69988 4.82391 7.58211 5.30242 6.11184Z" stroke="#040B14" stroke-width="1.07873"/>
<path id="Vector_5" d="M5.84961 7.91602L4.89086 14.1383C4.67791 15.5362 4.88843 16.6786 6.84424 17.3152L10.9678 18.6572C13.0946 19.3494 13.7119 18.5218 14.3765 17.3163L17.475 11.6997" stroke="#040B14" stroke-width="1.07873" stroke-linecap="round"/>
</g>
</g>
</svg>
