<svg width="19" height="19" viewBox="0 0 19 19" fill="none" xmlns="http://www.w3.org/2000/svg">
<g id="vuesax/linear/setting-4">
<g id="setting-4">
<path id="Vector" d="M8.06816 2.6662L6.95532 6.08545" stroke="#040B14" stroke-width="1.07873" stroke-miterlimit="10" stroke-linecap="round" stroke-linejoin="round"/>
<path id="Vector_2" d="M5.10053 11.784L4.35864 14.0635" stroke="#040B14" stroke-width="1.07873" stroke-miterlimit="10" stroke-linecap="round" stroke-linejoin="round"/>
<path id="Vector_3" d="M7.837 10.1538C8.19552 9.05228 7.59316 7.86865 6.4916 7.51013C5.39003 7.15162 4.2064 7.75397 3.84788 8.85554C3.48937 9.9571 4.09173 11.1407 5.19329 11.4993C6.29485 11.8578 7.47848 11.2554 7.837 10.1538Z" stroke="#040B14" stroke-width="1.07873" stroke-miterlimit="10" stroke-linecap="round" stroke-linejoin="round"/>
<path id="Vector_4" d="M14.3366 4.70634L13.5947 6.98584" stroke="#040B14" stroke-width="1.07873" stroke-miterlimit="10" stroke-linecap="round" stroke-linejoin="round"/>
<path id="Vector_5" d="M11.74 12.6848L10.6272 16.104" stroke="#040B14" stroke-width="1.07873" stroke-miterlimit="10" stroke-linecap="round" stroke-linejoin="round"/>
<path id="Vector_6" d="M14.8475 9.91459C15.206 8.81302 14.6037 7.62939 13.5021 7.27087C12.4005 6.91236 11.2169 7.51472 10.8584 8.61628C10.4999 9.71785 11.1022 10.9015 12.2038 11.26C13.3054 11.6185 14.489 11.0162 14.8475 9.91459Z" stroke="#040B14" stroke-width="1.07873" stroke-miterlimit="10" stroke-linecap="round" stroke-linejoin="round"/>
</g>
</g>
</svg>
